<svg width="32" height="31" viewBox="0 0 32 31" fill="none" xmlns="http://www.w3.org/2000/svg">
<g clip-path="url(#clip0_1_2018)">
<g clip-path="url(#clip1_1_2018)">
<g clip-path="url(#clip2_1_2018)">
<path fill-rule="evenodd" clip-rule="evenodd" d="M10.2365 11.0652C8.6106 11.0652 7.29233 12.3835 7.29233 14.0094H5.29826C5.29826 11.282 7.50912 9.07117 10.2365 9.07117C12.9639 9.07117 15.1748 11.282 15.1748 14.0094H13.1807C13.1807 12.3835 11.8625 11.0652 10.2365 11.0652ZM18.3612 16.0082H2.35875V26.0613C2.35875 26.5914 2.56933 27.0998 2.94418 27.4746C3.31902 27.8495 3.82741 28.0601 4.35752 28.0601H16.3625C16.625 28.0601 16.8849 28.0083 17.1274 27.9079C17.3699 27.8074 17.5903 27.6602 17.7759 27.4745C17.9615 27.2889 18.1087 27.0685 18.2091 26.826C18.3096 26.5835 18.3613 26.3235 18.3612 26.061V16.0085V16.0082ZM0.359985 14.0094V26.0613C0.359985 28.2687 2.14986 30.0588 4.35752 30.0588H16.3625C18.5699 30.0588 20.36 28.2689 20.36 26.0613V14.0094H0.359985Z" fill="#0B3954"/>
<path d="M7.27353 18.9477C7.27353 19.2097 7.16947 19.4609 6.98425 19.6461C6.79903 19.8313 6.54781 19.9354 6.28587 19.9354C6.02393 19.9354 5.77272 19.8313 5.5875 19.6461C5.40227 19.4609 5.29822 19.2097 5.29822 18.9477C5.29822 18.6858 5.40227 18.4346 5.5875 18.2494C5.77272 18.0641 6.02393 17.9601 6.28587 17.9601C6.54781 17.9601 6.79903 18.0641 6.98425 18.2494C7.16947 18.4346 7.27353 18.6858 7.27353 18.9477ZM15.4217 18.9477C15.4217 19.2097 15.3176 19.4609 15.1324 19.6461C14.9472 19.8313 14.696 19.9354 14.434 19.9354C14.1721 19.9354 13.9209 19.8313 13.7356 19.6461C13.5504 19.4609 13.4464 19.2097 13.4464 18.9477C13.4464 18.6858 13.5504 18.4346 13.7356 18.2494C13.9209 18.0641 14.1721 17.9601 14.434 17.9601C14.696 17.9601 14.9472 18.0641 15.1324 18.2494C15.3176 18.4346 15.4217 18.6858 15.4217 18.9477Z" fill="#0B3954"/>
</g>
</g>
</g>
<rect x="13.36" y="0.0749512" width="18.08" height="17" rx="8.5" fill="#333333"/>
<path d="M19.6184 8.01595C19.6184 6.75462 19.8237 5.77195 20.2344 5.06795C20.6451 4.35662 21.3637 4.00095 22.3904 4.00095C23.4097 4.00095 24.1247 4.35662 24.5354 5.06795C24.9461 5.77195 25.1514 6.75462 25.1514 8.01595C25.1514 9.29928 24.9461 10.2966 24.5354 11.008C24.1247 11.7193 23.4097 12.075 22.3904 12.075C21.3637 12.075 20.6451 11.7193 20.2344 11.008C19.8237 10.2966 19.6184 9.29928 19.6184 8.01595ZM24.1614 8.01595C24.1614 7.37795 24.1174 6.83895 24.0294 6.39895C23.9487 5.95162 23.7764 5.59228 23.5124 5.32095C23.2557 5.04962 22.8817 4.91395 22.3904 4.91395C21.8917 4.91395 21.5104 5.04962 21.2464 5.32095C20.9897 5.59228 20.8174 5.95162 20.7294 6.39895C20.6487 6.83895 20.6084 7.37795 20.6084 8.01595C20.6084 8.67595 20.6487 9.22962 20.7294 9.67695C20.8174 10.1243 20.9897 10.4836 21.2464 10.755C21.5104 11.0263 21.8917 11.162 22.3904 11.162C22.8817 11.162 23.2557 11.0263 23.5124 10.755C23.7764 10.4836 23.9487 10.1243 24.0294 9.67695C24.1174 9.22962 24.1614 8.67595 24.1614 8.01595Z" fill="white"/>
<defs>
<clipPath id="clip0_1_2018">
<rect width="20" height="20.98" fill="white" transform="translate(0.359985 9.07495)"/>
</clipPath>
<clipPath id="clip1_1_2018">
<rect width="20" height="20.98" fill="white" transform="translate(0.359985 9.07495)"/>
</clipPath>
<clipPath id="clip2_1_2018">
<rect width="20" height="20.9877" fill="white" transform="translate(0.359985 9.07117)"/>
</clipPath>
</defs>
</svg>
