<svg width="33" height="33" viewBox="0 0 33 33" fill="none" xmlns="http://www.w3.org/2000/svg">
<g clip-path="url(#clip0_1_2082)">
<g clip-path="url(#clip1_1_2082)">
<path fill-rule="evenodd" clip-rule="evenodd" d="M8.21602 16.2825C6.4487 16.2825 5.01602 17.7152 5.01602 19.4825V21.417H27.416V19.4825C27.416 17.7152 25.9834 16.2825 24.216 16.2825H8.21602ZM3.41602 19.4825C3.41602 16.8315 5.56506 14.6825 8.21602 14.6825H24.216C26.867 14.6825 29.016 16.8315 29.016 19.4825V23.017H3.41602V19.4825Z" fill="#0B3954"/>
<path fill-rule="evenodd" clip-rule="evenodd" d="M10.2402 13.378C10.2402 11.8316 11.4938 10.578 13.0402 10.578H19.3917C20.9382 10.578 22.1918 11.8316 22.1918 13.378V14.7871H20.5918V13.378C20.5918 12.7153 20.0545 12.178 19.3917 12.178H13.0402C12.3775 12.178 11.8402 12.7153 11.8402 13.378V14.7871H10.2402V13.378Z" fill="#0B3954"/>
<path fill-rule="evenodd" clip-rule="evenodd" d="M8.63203 7.87625C7.96929 7.87625 7.43203 8.41351 7.43203 9.07625V16.1825H5.83203V9.07625C5.83203 7.52985 7.08563 6.27625 8.63203 6.27625H23.7998C25.3462 6.27625 26.5998 7.52987 26.5998 9.07625V15.8982H24.9998V9.07625C24.9998 8.41351 24.4626 7.87625 23.7998 7.87625H8.63203Z" fill="#0B3954"/>
<path fill-rule="evenodd" clip-rule="evenodd" d="M7.31782 22.217C7.75964 22.217 8.11782 22.575 8.11782 23.017V24.3838C8.11782 24.8258 7.75964 25.1838 7.31782 25.1838C6.876 25.1838 6.51782 24.8258 6.51782 24.3838V23.017C6.51782 22.575 6.876 22.217 7.31782 22.217Z" fill="#0B3954"/>
<path fill-rule="evenodd" clip-rule="evenodd" d="M25.5405 22.217C25.9823 22.217 26.3405 22.575 26.3405 23.017V24.3838C26.3405 24.8258 25.9823 25.1838 25.5405 25.1838C25.0987 25.1838 24.7405 24.8258 24.7405 24.3838V23.017C24.7405 22.575 25.0987 22.217 25.5405 22.217Z" fill="#0B3954"/>
</g>
</g>
<defs>
<clipPath id="clip0_1_2082">
<rect width="32" height="32" fill="white" transform="translate(0.216064 0.130005)"/>
</clipPath>
<clipPath id="clip1_1_2082">
<rect width="32" height="32" fill="white" transform="translate(0.216064 0.130005)"/>
</clipPath>
</defs>
</svg>
