<svg width="204" height="239" viewBox="0 0 204 239" fill="none" xmlns="http://www.w3.org/2000/svg">
<rect x="12.3334" y="0.125" width="179.333" height="198" rx="32" fill="#F9F9F9"/>
<g clip-path="url(#clip0_1_1270)">
<g clip-path="url(#clip1_1_1270)">
<g clip-path="url(#clip2_1_1270)">
<path fill-rule="evenodd" clip-rule="evenodd" d="M62 70.8877C53.1634 70.8877 46 78.0511 46 86.8877V96.56H158V86.8877C158 78.0511 150.837 70.8877 142 70.8877H62ZM38 86.8877C38 73.6329 48.7452 62.8877 62 62.8877H142C155.255 62.8877 166 73.6329 166 86.8877V104.56H38V86.8877Z" fill="#0B3954"/>
<path fill-rule="evenodd" clip-rule="evenodd" d="M72.1211 56.3652C72.1211 48.6332 78.3891 42.3652 86.1211 42.3652H117.879C125.611 42.3652 131.879 48.6332 131.879 56.3652V63.4109H123.879V56.3652C123.879 53.0515 121.192 50.3652 117.879 50.3652H86.1211C82.8074 50.3652 80.1211 53.0515 80.1211 56.3652V63.4109H72.1211V56.3652Z" fill="#0B3954"/>
<path fill-rule="evenodd" clip-rule="evenodd" d="M64.0801 28.8564C60.7664 28.8564 58.0801 31.5427 58.0801 34.8564V70.3878H50.0801V34.8564C50.0801 27.1244 56.3481 20.8564 64.0801 20.8564H139.919C147.651 20.8564 153.919 27.1245 153.919 34.8564V68.9661H145.919V34.8564C145.919 31.5427 143.233 28.8564 139.919 28.8564H64.0801Z" fill="#0B3954"/>
</g>
</g>
</g>
<path d="M80.6625 161.225V158.945H84.3225C84.9891 158.945 85.4958 158.765 85.8425 158.405C86.1891 158.032 86.3625 157.525 86.3625 156.885C86.3625 156.245 86.1891 155.752 85.8425 155.405C85.4958 155.045 84.9891 154.865 84.3225 154.865H80.6625V153.125H84.1225C85.0958 153.125 85.9625 153.245 86.7225 153.485C87.4958 153.712 88.0958 154.098 88.5225 154.645C88.9625 155.192 89.1825 155.925 89.1825 156.845V157.125C89.1825 157.992 88.9891 158.732 88.6025 159.345C88.2291 159.945 87.6625 160.412 86.9025 160.745C86.1558 161.065 85.2291 161.225 84.1225 161.225H80.6625ZM78.2825 161.225V146.425H81.0625V161.225H78.2825ZM80.6625 154.405V152.665H83.7825C84.4625 152.665 84.9625 152.485 85.2825 152.125C85.6025 151.765 85.7625 151.285 85.7625 150.685C85.7625 150.085 85.6025 149.605 85.2825 149.245C84.9625 148.885 84.4625 148.705 83.7825 148.705H80.6625V146.425H83.5225C85.1758 146.425 86.4291 146.772 87.2825 147.465C88.1491 148.158 88.5825 149.152 88.5825 150.445V150.725C88.5825 151.632 88.3625 152.358 87.9225 152.905C87.4958 153.438 86.9025 153.825 86.1425 154.065C85.3825 154.292 84.5091 154.405 83.5225 154.405H80.6625ZM96.5943 161.505C95.661 161.505 94.841 161.345 94.1343 161.025C93.441 160.705 92.861 160.278 92.3943 159.745C91.941 159.198 91.5943 158.592 91.3543 157.925C91.1277 157.258 91.0143 156.578 91.0143 155.885V155.505C91.0143 154.785 91.1277 154.092 91.3543 153.425C91.5943 152.745 91.941 152.145 92.3943 151.625C92.861 151.092 93.4343 150.672 94.1143 150.365C94.7943 150.045 95.581 149.885 96.4743 149.885C97.6477 149.885 98.6277 150.145 99.4143 150.665C100.214 151.172 100.814 151.845 101.214 152.685C101.614 153.512 101.814 154.405 101.814 155.365V156.365H92.1943V154.665H100.074L99.2143 155.505C99.2143 154.812 99.1143 154.218 98.9143 153.725C98.7143 153.232 98.4077 152.852 97.9943 152.585C97.5943 152.318 97.0877 152.185 96.4743 152.185C95.861 152.185 95.341 152.325 94.9143 152.605C94.4877 152.885 94.161 153.292 93.9343 153.825C93.721 154.345 93.6143 154.972 93.6143 155.705C93.6143 156.385 93.721 156.992 93.9343 157.525C94.1477 158.045 94.4743 158.458 94.9143 158.765C95.3543 159.058 95.9143 159.205 96.5943 159.205C97.2743 159.205 97.8277 159.072 98.2543 158.805C98.681 158.525 98.9543 158.185 99.0743 157.785H101.634C101.474 158.532 101.168 159.185 100.714 159.745C100.261 160.305 99.681 160.738 98.9743 161.045C98.281 161.352 97.4877 161.505 96.5943 161.505ZM108.637 161.485C107.877 161.485 107.177 161.345 106.537 161.065C105.897 160.785 105.343 160.392 104.877 159.885C104.41 159.378 104.05 158.792 103.797 158.125C103.543 157.445 103.417 156.712 103.417 155.925V155.505C103.417 154.732 103.537 154.005 103.777 153.325C104.03 152.645 104.377 152.052 104.817 151.545C105.27 151.038 105.81 150.645 106.437 150.365C107.077 150.072 107.783 149.925 108.557 149.925C109.41 149.925 110.157 150.112 110.797 150.485C111.45 150.845 111.97 151.392 112.357 152.125C112.743 152.858 112.957 153.778 112.997 154.885L112.177 153.925V146.525H114.957V161.125H112.757V156.505H113.237C113.197 157.612 112.97 158.538 112.557 159.285C112.143 160.018 111.597 160.572 110.917 160.945C110.25 161.305 109.49 161.485 108.637 161.485ZM109.257 159.145C109.803 159.145 110.303 159.025 110.757 158.785C111.21 158.532 111.57 158.172 111.837 157.705C112.117 157.225 112.257 156.665 112.257 156.025V155.225C112.257 154.585 112.117 154.052 111.837 153.625C111.557 153.185 111.19 152.852 110.737 152.625C110.283 152.385 109.79 152.265 109.257 152.265C108.657 152.265 108.123 152.412 107.657 152.705C107.203 152.985 106.843 153.385 106.577 153.905C106.323 154.425 106.197 155.032 106.197 155.725C106.197 156.418 106.33 157.025 106.597 157.545C106.863 158.052 107.223 158.445 107.677 158.725C108.143 159.005 108.67 159.145 109.257 159.145ZM122.061 161.465C120.568 161.465 119.394 161.152 118.541 160.525C117.701 159.885 117.261 159.005 117.221 157.885H119.721C119.761 158.258 119.968 158.598 120.341 158.905C120.714 159.212 121.301 159.365 122.101 159.365C122.768 159.365 123.294 159.245 123.681 159.005C124.081 158.765 124.281 158.438 124.281 158.025C124.281 157.665 124.128 157.378 123.821 157.165C123.528 156.952 123.021 156.812 122.301 156.745L121.341 156.645C120.128 156.512 119.194 156.165 118.541 155.605C117.888 155.045 117.561 154.298 117.561 153.365C117.561 152.618 117.748 151.992 118.121 151.485C118.494 150.978 119.008 150.598 119.661 150.345C120.328 150.078 121.088 149.945 121.941 149.945C123.274 149.945 124.354 150.238 125.181 150.825C126.008 151.412 126.441 152.272 126.481 153.405H123.981C123.954 153.032 123.768 152.712 123.421 152.445C123.074 152.178 122.574 152.045 121.921 152.045C121.334 152.045 120.881 152.158 120.561 152.385C120.241 152.612 120.081 152.905 120.081 153.265C120.081 153.612 120.208 153.878 120.461 154.065C120.728 154.252 121.154 154.378 121.741 154.445L122.701 154.545C123.981 154.678 124.981 155.032 125.701 155.605C126.434 156.178 126.801 156.952 126.801 157.925C126.801 158.645 126.601 159.272 126.201 159.805C125.814 160.325 125.268 160.732 124.561 161.025C123.854 161.318 123.021 161.465 122.061 161.465Z" fill="#0B3954"/>
<defs>
<clipPath id="clip0_1_1270">
<rect width="161.427" height="80" fill="white" transform="translate(21.2865 30.125)"/>
</clipPath>
<clipPath id="clip1_1_1270">
<rect width="80" height="80" fill="white" transform="translate(62 30.125)"/>
</clipPath>
<clipPath id="clip2_1_1270">
<rect width="80" height="80" fill="white" transform="translate(62 30.125)"/>
</clipPath>
</defs>
</svg>
