<svg width="33" height="33" viewBox="0 0 33 33" fill="none" xmlns="http://www.w3.org/2000/svg">
<g clip-path="url(#clip0_1_2136)">
<path fill-rule="evenodd" clip-rule="evenodd" d="M8.80671 4.92996C8.14395 4.92996 7.60671 5.46722 7.60671 6.12996V23.2176C7.60671 23.8804 8.14395 24.4176 8.80671 24.4176H15.8137V4.92996H8.80671ZM17.4137 4.92996V24.4176H24.4206C25.0834 24.4176 25.6206 23.8804 25.6206 23.2176V6.12996C25.6206 5.46722 25.0834 4.92996 24.4206 4.92996H17.4137ZM6.00671 6.12996C6.00671 4.58356 7.26031 3.32996 8.80671 3.32996H24.4206C25.967 3.32996 27.2206 4.58356 27.2206 6.12996V23.2176C27.2206 24.764 25.967 26.0176 24.4206 26.0176H8.80671C7.26031 26.0176 6.00671 24.764 6.00671 23.2176V6.12996Z" fill="#0B3954"/>
<path fill-rule="evenodd" clip-rule="evenodd" d="M9.76252 24.9781C10.2043 24.9781 10.5625 25.3363 10.5625 25.7781V27.3302C10.5625 27.772 10.2043 28.1302 9.76252 28.1302C9.32068 28.1302 8.96252 27.772 8.96252 27.3302V25.7781C8.96252 25.3363 9.32068 24.9781 9.76252 24.9781Z" fill="#0B3954"/>
<path fill-rule="evenodd" clip-rule="evenodd" d="M10.8475 13.0978C11.2893 13.0978 11.6475 13.4559 11.6475 13.8978V15.4498C11.6475 15.8916 11.2893 16.2498 10.8475 16.2498C10.4056 16.2498 10.0475 15.8916 10.0475 15.4498V13.8978C10.0475 13.4559 10.4056 13.0978 10.8475 13.0978Z" fill="#0B3954"/>
<path fill-rule="evenodd" clip-rule="evenodd" d="M22.1815 13.0978C22.6233 13.0978 22.9815 13.4559 22.9815 13.8978V15.4498C22.9815 15.8916 22.6233 16.2498 22.1815 16.2498C21.7397 16.2498 21.3815 15.8916 21.3815 15.4498V13.8978C21.3815 13.4559 21.7397 13.0978 22.1815 13.0978Z" fill="#0B3954"/>
<path fill-rule="evenodd" clip-rule="evenodd" d="M23.2669 24.9781C23.7087 24.9781 24.0669 25.3363 24.0669 25.7781V27.3302C24.0669 27.772 23.7087 28.1302 23.2669 28.1302C22.8251 28.1302 22.4669 27.772 22.4669 27.3302V25.7781C22.4669 25.3363 22.8251 24.9781 23.2669 24.9781Z" fill="#0B3954"/>
</g>
<defs>
<clipPath id="clip0_1_2136">
<rect width="32" height="32" fill="white" transform="translate(0.613892 0.130005)"/>
</clipPath>
</defs>
</svg>
