<svg width="204" height="239" viewBox="0 0 204 239" fill="none" xmlns="http://www.w3.org/2000/svg">
<rect x="12.3333" y="0.125" width="179.333" height="198" rx="32" fill="#F9F9F9"/>
<g clip-path="url(#clip0_1_1314)">
<g clip-path="url(#clip1_1_1314)">
<g clip-path="url(#clip2_1_1314)">
<path fill-rule="evenodd" clip-rule="evenodd" d="M62.9642 14.125C59.6504 14.125 56.9642 16.8113 56.9642 20.125V105.563C56.9642 108.877 59.6504 111.563 62.9642 111.563H97.9992V14.125H62.9642ZM105.999 14.125V111.563H141.034C144.348 111.563 147.034 108.877 147.034 105.563V20.125C147.034 16.8113 144.348 14.125 141.034 14.125H105.999ZM48.9642 20.125C48.9642 12.393 55.2322 6.125 62.9642 6.125H141.034C148.766 6.125 155.034 12.393 155.034 20.125V105.563C155.034 113.295 148.766 119.563 141.034 119.563H62.9642C55.2322 119.563 48.9642 113.295 48.9642 105.563V20.125Z" fill="#0B3954"/>
<path fill-rule="evenodd" clip-rule="evenodd" d="M73.1678 54.9639C75.3769 54.9639 77.1678 56.7547 77.1678 58.9639V66.7238C77.1678 68.9329 75.3769 70.7238 73.1678 70.7238C70.9586 70.7238 69.1678 68.9329 69.1678 66.7238V58.9639C69.1678 56.7547 70.9586 54.9639 73.1678 54.9639Z" fill="#0B3954"/>
<path fill-rule="evenodd" clip-rule="evenodd" d="M129.838 54.9639C132.047 54.9639 133.838 56.7547 133.838 58.9639V66.7238C133.838 68.9329 132.047 70.7238 129.838 70.7238C127.629 70.7238 125.838 68.9329 125.838 66.7238V58.9639C125.838 56.7547 127.629 54.9639 129.838 54.9639Z" fill="#0B3954"/>
</g>
</g>
</g>
<path d="M63.8272 161.505C62.5072 161.505 61.3739 161.272 60.4272 160.805C59.4805 160.338 58.7072 159.732 58.1072 158.985C57.5205 158.238 57.0872 157.425 56.8072 156.545C56.5272 155.665 56.3872 154.818 56.3872 154.005V153.565C56.3872 152.658 56.5272 151.765 56.8072 150.885C57.1005 150.005 57.5472 149.205 58.1472 148.485C58.7472 147.765 59.5072 147.192 60.4272 146.765C61.3605 146.325 62.4605 146.105 63.7272 146.105C65.0472 146.105 66.1939 146.345 67.1672 146.825C68.1539 147.292 68.9405 147.958 69.5272 148.825C70.1139 149.678 70.4672 150.678 70.5872 151.825H67.7272C67.6205 151.158 67.3805 150.598 67.0072 150.145C66.6472 149.678 66.1872 149.332 65.6272 149.105C65.0672 148.865 64.4339 148.745 63.7272 148.745C63.0072 148.745 62.3672 148.872 61.8072 149.125C61.2472 149.365 60.7805 149.712 60.4072 150.165C60.0339 150.618 59.7472 151.152 59.5472 151.765C59.3605 152.378 59.2672 153.058 59.2672 153.805C59.2672 154.525 59.3605 155.192 59.5472 155.805C59.7472 156.418 60.0405 156.958 60.4272 157.425C60.8139 157.878 61.2872 158.232 61.8472 158.485C62.4205 158.738 63.0805 158.865 63.8272 158.865C64.9205 158.865 65.8405 158.598 66.5872 158.065C67.3472 157.518 67.8072 156.758 67.9672 155.785H70.8272C70.6939 156.825 70.3405 157.778 69.7672 158.645C69.1939 159.512 68.4072 160.205 67.4072 160.725C66.4072 161.245 65.2139 161.505 63.8272 161.505ZM79.5838 161.125V157.905H79.1238V154.325C79.1238 153.698 78.9704 153.232 78.6638 152.925C78.3571 152.618 77.8838 152.465 77.2438 152.465C76.9104 152.465 76.5104 152.472 76.0438 152.485C75.5771 152.498 75.1038 152.518 74.6238 152.545C74.1571 152.558 73.7371 152.578 73.3638 152.605V150.245C73.6704 150.218 74.0171 150.192 74.4038 150.165C74.7904 150.138 75.1838 150.125 75.5838 150.125C75.9971 150.112 76.3838 150.105 76.7438 150.105C77.8638 150.105 78.7904 150.252 79.5238 150.545C80.2704 150.838 80.8304 151.298 81.2038 151.925C81.5904 152.552 81.7838 153.372 81.7838 154.385V161.125H79.5838ZM76.0838 161.405C75.2971 161.405 74.6038 161.265 74.0038 160.985C73.4171 160.705 72.9571 160.305 72.6238 159.785C72.3038 159.265 72.1438 158.638 72.1438 157.905C72.1438 157.105 72.3371 156.452 72.7238 155.945C73.1238 155.438 73.6771 155.058 74.3838 154.805C75.1038 154.552 75.9438 154.425 76.9038 154.425H79.4238V156.085H76.8638C76.2238 156.085 75.7304 156.245 75.3838 156.565C75.0504 156.872 74.8838 157.272 74.8838 157.765C74.8838 158.258 75.0504 158.658 75.3838 158.965C75.7304 159.272 76.2238 159.425 76.8638 159.425C77.2504 159.425 77.6038 159.358 77.9238 159.225C78.2571 159.078 78.5304 158.838 78.7438 158.505C78.9704 158.158 79.0971 157.692 79.1238 157.105L79.8038 157.885C79.7371 158.645 79.5504 159.285 79.2438 159.805C78.9504 160.325 78.5371 160.725 78.0038 161.005C77.4838 161.272 76.8438 161.405 76.0838 161.405ZM91.1416 161.485C90.2482 161.485 89.4616 161.298 88.7816 160.925C88.1016 160.538 87.5682 159.978 87.1816 159.245C86.7949 158.512 86.5816 157.625 86.5416 156.585H86.9616V161.125H84.7616V146.525H87.5416V153.825L86.8016 154.965C86.8549 153.845 87.0749 152.912 87.4616 152.165C87.8616 151.418 88.3949 150.858 89.0616 150.485C89.7282 150.112 90.4816 149.925 91.3216 149.925C92.0682 149.925 92.7482 150.065 93.3616 150.345C93.9749 150.625 94.5016 151.018 94.9416 151.525C95.3816 152.018 95.7149 152.598 95.9416 153.265C96.1816 153.932 96.3016 154.658 96.3016 155.445V155.865C96.3016 156.652 96.1816 157.385 95.9416 158.065C95.7016 158.745 95.3549 159.345 94.9016 159.865C94.4482 160.372 93.9016 160.772 93.2616 161.065C92.6349 161.345 91.9282 161.485 91.1416 161.485ZM90.5216 159.145C91.1216 159.145 91.6416 158.998 92.0816 158.705C92.5349 158.398 92.8882 157.985 93.1416 157.465C93.3949 156.945 93.5216 156.345 93.5216 155.665C93.5216 154.972 93.3949 154.372 93.1416 153.865C92.8882 153.358 92.5349 152.965 92.0816 152.685C91.6416 152.405 91.1216 152.265 90.5216 152.265C89.9749 152.265 89.4682 152.385 89.0016 152.625C88.5482 152.865 88.1749 153.218 87.8816 153.685C87.6016 154.152 87.4616 154.712 87.4616 155.365V156.165C87.4616 156.792 87.6082 157.325 87.9016 157.765C88.1949 158.205 88.5749 158.545 89.0416 158.785C89.5082 159.025 90.0016 159.145 90.5216 159.145ZM99.2659 161.125V150.265H102.046V161.125H99.2659ZM97.7459 152.345V150.265H102.046V152.345H97.7459ZM100.286 148.965C99.7393 148.965 99.3326 148.825 99.0659 148.545C98.8126 148.252 98.6859 147.892 98.6859 147.465C98.6859 147.012 98.8126 146.645 99.0659 146.365C99.3326 146.085 99.7393 145.945 100.286 145.945C100.833 145.945 101.233 146.085 101.486 146.365C101.739 146.645 101.866 147.012 101.866 147.465C101.866 147.892 101.739 148.252 101.486 148.545C101.233 148.825 100.833 148.965 100.286 148.965ZM105.25 161.125V150.265H107.45V154.925H107.25C107.25 153.818 107.397 152.898 107.69 152.165C107.983 151.418 108.417 150.858 108.99 150.485C109.577 150.112 110.303 149.925 111.17 149.925H111.29C112.583 149.925 113.563 150.345 114.23 151.185C114.897 152.012 115.23 153.252 115.23 154.905V161.125H112.45V154.665C112.45 153.998 112.257 153.458 111.87 153.045C111.497 152.632 110.977 152.425 110.31 152.425C109.63 152.425 109.077 152.638 108.65 153.065C108.237 153.478 108.03 154.038 108.03 154.745V161.125H105.25ZM123.079 161.505C122.145 161.505 121.325 161.345 120.619 161.025C119.925 160.705 119.345 160.278 118.879 159.745C118.425 159.198 118.079 158.592 117.839 157.925C117.612 157.258 117.499 156.578 117.499 155.885V155.505C117.499 154.785 117.612 154.092 117.839 153.425C118.079 152.745 118.425 152.145 118.879 151.625C119.345 151.092 119.919 150.672 120.599 150.365C121.279 150.045 122.065 149.885 122.959 149.885C124.132 149.885 125.112 150.145 125.899 150.665C126.699 151.172 127.299 151.845 127.699 152.685C128.099 153.512 128.299 154.405 128.299 155.365V156.365H118.679V154.665H126.559L125.699 155.505C125.699 154.812 125.599 154.218 125.399 153.725C125.199 153.232 124.892 152.852 124.479 152.585C124.079 152.318 123.572 152.185 122.959 152.185C122.345 152.185 121.825 152.325 121.399 152.605C120.972 152.885 120.645 153.292 120.419 153.825C120.205 154.345 120.099 154.972 120.099 155.705C120.099 156.385 120.205 156.992 120.419 157.525C120.632 158.045 120.959 158.458 121.399 158.765C121.839 159.058 122.399 159.205 123.079 159.205C123.759 159.205 124.312 159.072 124.739 158.805C125.165 158.525 125.439 158.185 125.559 157.785H128.119C127.959 158.532 127.652 159.185 127.199 159.745C126.745 160.305 126.165 160.738 125.459 161.045C124.765 161.352 123.972 161.505 123.079 161.505ZM135.341 161.265C134.341 161.265 133.514 161.138 132.861 160.885C132.221 160.618 131.741 160.178 131.421 159.565C131.101 158.938 130.941 158.098 130.941 157.045L130.961 147.205H133.561L133.541 157.225C133.541 157.758 133.681 158.172 133.961 158.465C134.254 158.745 134.668 158.885 135.201 158.885H136.901V161.265H135.341ZM129.221 152.305V150.265H136.901V152.305H129.221ZM143.096 161.465C141.603 161.465 140.429 161.152 139.576 160.525C138.736 159.885 138.296 159.005 138.256 157.885H140.756C140.796 158.258 141.003 158.598 141.376 158.905C141.749 159.212 142.336 159.365 143.136 159.365C143.803 159.365 144.329 159.245 144.716 159.005C145.116 158.765 145.316 158.438 145.316 158.025C145.316 157.665 145.163 157.378 144.856 157.165C144.563 156.952 144.056 156.812 143.336 156.745L142.376 156.645C141.163 156.512 140.229 156.165 139.576 155.605C138.923 155.045 138.596 154.298 138.596 153.365C138.596 152.618 138.783 151.992 139.156 151.485C139.529 150.978 140.043 150.598 140.696 150.345C141.363 150.078 142.123 149.945 142.976 149.945C144.309 149.945 145.389 150.238 146.216 150.825C147.043 151.412 147.476 152.272 147.516 153.405H145.016C144.989 153.032 144.803 152.712 144.456 152.445C144.109 152.178 143.609 152.045 142.956 152.045C142.369 152.045 141.916 152.158 141.596 152.385C141.276 152.612 141.116 152.905 141.116 153.265C141.116 153.612 141.243 153.878 141.496 154.065C141.763 154.252 142.189 154.378 142.776 154.445L143.736 154.545C145.016 154.678 146.016 155.032 146.736 155.605C147.469 156.178 147.836 156.952 147.836 157.925C147.836 158.645 147.636 159.272 147.236 159.805C146.849 160.325 146.303 160.732 145.596 161.025C144.889 161.318 144.056 161.465 143.096 161.465Z" fill="#0B3954"/>
<defs>
<clipPath id="clip0_1_1314">
<rect width="161.427" height="80" fill="white" transform="translate(21.2864 30.125)"/>
</clipPath>
<clipPath id="clip1_1_1314">
<rect width="80" height="80" fill="white" transform="translate(61.9999 30.125)"/>
</clipPath>
<clipPath id="clip2_1_1314">
<rect width="80" height="80" fill="white" transform="translate(61.9999 30.125)"/>
</clipPath>
</defs>
</svg>
