<svg width="204" height="239" viewBox="0 0 204 239" fill="none" xmlns="http://www.w3.org/2000/svg">
<rect x="12" y="0.125" width="179.333" height="198" rx="32" fill="#F9F9F9"/>
<g clip-path="url(#clip0_1_1255)">
<g clip-path="url(#clip1_1_1255)">
<g clip-path="url(#clip2_1_1255)">
<path fill-rule="evenodd" clip-rule="evenodd" d="M67.2092 72.9946C74.8603 78.2605 85.3043 84.1992 101.667 84.1992C118.03 84.1992 128.474 78.2605 136.126 72.9946C137.318 72.1736 138.363 71.4265 139.384 70.6961C140.099 70.1851 140.802 69.6823 141.536 69.1681C143.197 68.0052 144.882 66.8834 146.535 66.0507C148.181 65.221 150.083 64.5271 152.153 64.5091C154.354 64.49 156.378 65.2358 158.165 66.6596C162.96 70.4795 163.693 76.8351 162.494 82.7488C161.265 88.8121 157.868 95.514 152.769 101.705C142.529 114.139 124.865 125.185 101.667 125.185C78.4694 125.185 60.8057 114.139 50.5657 101.705C45.4665 95.514 42.0697 88.8121 40.8403 82.7488C39.6412 76.8351 40.3743 70.4795 45.1696 66.6596C46.957 65.2358 48.9809 64.49 51.1814 64.5091C53.2521 64.5271 55.1534 65.221 56.8 66.0507C58.4524 66.8834 60.1376 68.0052 61.7984 69.1681C62.5328 69.6823 63.2359 70.1851 63.9503 70.6961C64.9717 71.4265 66.0163 72.1736 67.2092 72.9946ZM51.1119 72.5088C50.8978 72.507 50.6299 72.538 50.1542 72.9169C48.7975 73.9976 47.7395 76.5169 48.6808 81.1591C49.5917 85.6516 52.2666 91.187 56.741 96.619C65.6481 107.434 81.139 117.185 101.667 117.185C122.196 117.185 137.687 107.434 146.594 96.619C151.068 91.187 153.743 85.6516 154.654 81.1591C155.595 76.5169 154.537 73.9976 153.181 72.9169C152.705 72.538 152.437 72.507 152.223 72.5088C151.879 72.5118 151.243 72.6367 150.135 73.1949C149.033 73.7503 147.746 74.5858 146.125 75.7213C145.539 76.1313 144.878 76.6037 144.172 77.108C143.071 77.8942 141.862 78.7581 140.661 79.5846C132.318 85.3269 120.285 92.199 101.667 92.199C83.0494 92.199 71.0169 85.3269 62.6736 79.5846C61.4726 78.7581 60.2633 77.8942 59.1627 77.108C58.4566 76.6037 57.7953 76.1313 57.2098 75.7213C55.5882 74.5858 54.302 73.7503 53.1999 73.1949C52.0921 72.6367 51.4558 72.5118 51.1119 72.5088Z" fill="#0B3954"/>
<path fill-rule="evenodd" clip-rule="evenodd" d="M62.3258 29.4733C61.0683 31.6487 60.9303 33.2215 61.0944 34.0279C62.4159 40.515 68.9525 65.7553 72.0901 77.6886L64.353 79.7229C61.2514 67.9266 54.6343 42.3936 53.2554 35.6248C52.5759 32.2888 53.5309 28.7026 55.3995 25.4698C57.3006 22.1807 60.3127 18.9428 64.3435 16.1C72.4279 10.3983 84.8195 6.125 101.668 6.125C118.517 6.125 130.908 10.3983 138.993 16.1C143.024 18.9428 146.036 22.1807 147.937 25.4698C149.806 28.7026 150.761 32.2888 150.081 35.6248C148.702 42.3936 142.085 67.9266 138.983 79.7229L131.246 77.6886C134.384 65.7553 140.92 40.515 142.242 34.0279C142.406 33.2215 142.268 31.6487 141.011 29.4733C139.786 27.3542 137.639 24.9346 134.382 22.6377C127.891 18.0599 117.192 14.125 101.668 14.125C86.1441 14.125 75.4453 18.0599 68.9544 22.6377C65.6975 24.9346 63.5507 27.3542 62.3258 29.4733Z" fill="#0B3954"/>
</g>
</g>
</g>
<path d="M76.785 161.505C75.465 161.505 74.3316 161.272 73.385 160.805C72.4383 160.338 71.665 159.732 71.065 158.985C70.4783 158.238 70.045 157.425 69.765 156.545C69.485 155.665 69.345 154.818 69.345 154.005V153.565C69.345 152.658 69.485 151.765 69.765 150.885C70.0583 150.005 70.505 149.205 71.105 148.485C71.705 147.765 72.465 147.192 73.385 146.765C74.3183 146.325 75.4183 146.105 76.685 146.105C78.005 146.105 79.1516 146.345 80.125 146.825C81.1116 147.292 81.8983 147.958 82.485 148.825C83.0716 149.678 83.425 150.678 83.545 151.825H80.685C80.5783 151.158 80.3383 150.598 79.965 150.145C79.605 149.678 79.145 149.332 78.585 149.105C78.025 148.865 77.3916 148.745 76.685 148.745C75.965 148.745 75.325 148.872 74.765 149.125C74.205 149.365 73.7383 149.712 73.365 150.165C72.9916 150.618 72.705 151.152 72.505 151.765C72.3183 152.378 72.225 153.058 72.225 153.805C72.225 154.525 72.3183 155.192 72.505 155.805C72.705 156.418 72.9983 156.958 73.385 157.425C73.7716 157.878 74.245 158.232 74.805 158.485C75.3783 158.738 76.0383 158.865 76.785 158.865C77.8783 158.865 78.7983 158.598 79.545 158.065C80.305 157.518 80.765 156.758 80.925 155.785H83.785C83.6516 156.825 83.2983 157.778 82.725 158.645C82.1516 159.512 81.365 160.205 80.365 160.725C79.365 161.245 78.1716 161.505 76.785 161.505ZM85.9615 161.125V146.525H88.7415V155.045H88.2615C88.2615 153.952 88.4015 153.025 88.6815 152.265C88.9615 151.505 89.3748 150.925 89.9215 150.525C90.4815 150.125 91.1882 149.925 92.0415 149.925H92.1615C93.4015 149.925 94.3415 150.352 94.9815 151.205C95.6215 152.058 95.9415 153.298 95.9415 154.925V161.125H93.1615V154.665C93.1615 153.972 92.9615 153.425 92.5615 153.025C92.1748 152.625 91.6615 152.425 91.0215 152.425C90.3415 152.425 89.7882 152.652 89.3615 153.105C88.9482 153.545 88.7415 154.125 88.7415 154.845V161.125H85.9615ZM105.51 161.125V157.905H105.05V154.325C105.05 153.698 104.897 153.232 104.59 152.925C104.284 152.618 103.81 152.465 103.17 152.465C102.837 152.465 102.437 152.472 101.97 152.485C101.504 152.498 101.03 152.518 100.55 152.545C100.084 152.558 99.6636 152.578 99.2903 152.605V150.245C99.5969 150.218 99.9436 150.192 100.33 150.165C100.717 150.138 101.11 150.125 101.51 150.125C101.924 150.112 102.31 150.105 102.67 150.105C103.79 150.105 104.717 150.252 105.45 150.545C106.197 150.838 106.757 151.298 107.13 151.925C107.517 152.552 107.71 153.372 107.71 154.385V161.125H105.51ZM102.01 161.405C101.224 161.405 100.53 161.265 99.9303 160.985C99.3436 160.705 98.8836 160.305 98.5503 159.785C98.2303 159.265 98.0703 158.638 98.0703 157.905C98.0703 157.105 98.2636 156.452 98.6503 155.945C99.0503 155.438 99.6036 155.058 100.31 154.805C101.03 154.552 101.87 154.425 102.83 154.425H105.35V156.085H102.79C102.15 156.085 101.657 156.245 101.31 156.565C100.977 156.872 100.81 157.272 100.81 157.765C100.81 158.258 100.977 158.658 101.31 158.965C101.657 159.272 102.15 159.425 102.79 159.425C103.177 159.425 103.53 159.358 103.85 159.225C104.184 159.078 104.457 158.838 104.67 158.505C104.897 158.158 105.024 157.692 105.05 157.105L105.73 157.885C105.664 158.645 105.477 159.285 105.17 159.805C104.877 160.325 104.464 160.725 103.93 161.005C103.41 161.272 102.77 161.405 102.01 161.405ZM111.208 161.125V150.265H113.988V161.125H111.208ZM109.688 152.345V150.265H113.988V152.345H109.688ZM112.228 148.965C111.681 148.965 111.275 148.825 111.008 148.545C110.755 148.252 110.628 147.892 110.628 147.465C110.628 147.012 110.755 146.645 111.008 146.365C111.275 146.085 111.681 145.945 112.228 145.945C112.775 145.945 113.175 146.085 113.428 146.365C113.681 146.645 113.808 147.012 113.808 147.465C113.808 147.892 113.681 148.252 113.428 148.545C113.175 148.825 112.775 148.965 112.228 148.965ZM117.192 161.125V150.265H119.392V154.865H119.332C119.332 153.305 119.665 152.125 120.332 151.325C120.999 150.525 121.979 150.125 123.272 150.125H123.672V152.545H122.912C121.979 152.545 121.252 152.798 120.732 153.305C120.225 153.798 119.972 154.518 119.972 155.465V161.125H117.192ZM129.472 161.465C127.978 161.465 126.805 161.152 125.952 160.525C125.112 159.885 124.672 159.005 124.632 157.885H127.132C127.172 158.258 127.378 158.598 127.752 158.905C128.125 159.212 128.712 159.365 129.512 159.365C130.178 159.365 130.705 159.245 131.092 159.005C131.492 158.765 131.692 158.438 131.692 158.025C131.692 157.665 131.538 157.378 131.232 157.165C130.938 156.952 130.432 156.812 129.712 156.745L128.752 156.645C127.538 156.512 126.605 156.165 125.952 155.605C125.298 155.045 124.972 154.298 124.972 153.365C124.972 152.618 125.158 151.992 125.532 151.485C125.905 150.978 126.418 150.598 127.072 150.345C127.738 150.078 128.498 149.945 129.352 149.945C130.685 149.945 131.765 150.238 132.592 150.825C133.418 151.412 133.852 152.272 133.892 153.405H131.392C131.365 153.032 131.178 152.712 130.832 152.445C130.485 152.178 129.985 152.045 129.332 152.045C128.745 152.045 128.292 152.158 127.972 152.385C127.652 152.612 127.492 152.905 127.492 153.265C127.492 153.612 127.618 153.878 127.872 154.065C128.138 154.252 128.565 154.378 129.152 154.445L130.112 154.545C131.392 154.678 132.392 155.032 133.112 155.605C133.845 156.178 134.212 156.952 134.212 157.925C134.212 158.645 134.012 159.272 133.612 159.805C133.225 160.325 132.678 160.732 131.972 161.025C131.265 161.318 130.432 161.465 129.472 161.465Z" fill="#0B3954"/>
<defs>
<clipPath id="clip0_1_1255">
<rect width="161.427" height="80" fill="white" transform="translate(20.9531 30.125)"/>
</clipPath>
<clipPath id="clip1_1_1255">
<rect width="80" height="80" fill="white" transform="translate(61.6667 30.125)"/>
</clipPath>
<clipPath id="clip2_1_1255">
<rect width="80" height="80" fill="white" transform="translate(61.6667 30.125)"/>
</clipPath>
</defs>
</svg>
