<svg width="58" height="25" viewBox="0 0 58 25" fill="none" xmlns="http://www.w3.org/2000/svg">
<path d="M9.072 15.3489C9.072 15.9036 8.928 16.4263 8.64 16.9169C8.36267 17.3969 7.94667 17.7969 7.392 18.1169C6.848 18.4263 6.20267 18.6076 5.456 18.6609V19.9569H4.432V18.6449C3.36533 18.5489 2.50667 18.2289 1.856 17.6849C1.20533 17.1303 0.869333 16.3836 0.848 15.4449H3.248C3.312 16.2129 3.70667 16.6769 4.432 16.8369V13.7809C3.664 13.5889 3.04533 13.3969 2.576 13.2049C2.10667 13.0129 1.70133 12.7036 1.36 12.2769C1.01867 11.8503 0.848 11.2689 0.848 10.5329C0.848 9.60494 1.17867 8.84761 1.84 8.26094C2.512 7.67427 3.376 7.33827 4.432 7.25294V5.95694H5.456V7.25294C6.48 7.33827 7.296 7.64761 7.904 8.18094C8.52267 8.71427 8.86933 9.45027 8.944 10.3889H6.528C6.496 10.0796 6.384 9.81294 6.192 9.58894C6.01067 9.35427 5.76533 9.18894 5.456 9.09294V12.1169C6.256 12.3196 6.88533 12.5169 7.344 12.7089C7.81333 12.8903 8.21867 13.1943 8.56 13.6209C8.90133 14.0369 9.072 14.6129 9.072 15.3489ZM3.184 10.4209C3.184 10.7729 3.29067 11.0609 3.504 11.2849C3.71733 11.4983 4.02667 11.6743 4.432 11.8129V9.04494C4.048 9.09827 3.744 9.24227 3.52 9.47694C3.296 9.71161 3.184 10.0263 3.184 10.4209ZM5.456 16.8689C5.86133 16.7943 6.176 16.6289 6.4 16.3729C6.63467 16.1169 6.752 15.8076 6.752 15.4449C6.752 15.0929 6.64 14.8103 6.416 14.5969C6.192 14.3836 5.872 14.2076 5.456 14.0689V16.8689ZM11.3168 12.5809C11.3168 10.7356 11.6474 9.29027 12.3088 8.24494C12.9808 7.19961 14.0901 6.67694 15.6368 6.67694C17.1834 6.67694 18.2874 7.19961 18.9488 8.24494C19.6208 9.29027 19.9568 10.7356 19.9568 12.5809C19.9568 14.4369 19.6208 15.8929 18.9488 16.9489C18.2874 18.0049 17.1834 18.5329 15.6368 18.5329C14.0901 18.5329 12.9808 18.0049 12.3088 16.9489C11.6474 15.8929 11.3168 14.4369 11.3168 12.5809ZM17.7488 12.5809C17.7488 11.7916 17.6954 11.1303 17.5888 10.5969C17.4928 10.0529 17.2901 9.61027 16.9808 9.26894C16.6821 8.92761 16.2341 8.75694 15.6368 8.75694C15.0394 8.75694 14.5861 8.92761 14.2768 9.26894C13.9781 9.61027 13.7754 10.0529 13.6688 10.5969C13.5728 11.1303 13.5248 11.7916 13.5248 12.5809C13.5248 13.3916 13.5728 14.0743 13.6688 14.6289C13.7648 15.1729 13.9674 15.6156 14.2768 15.9569C14.5861 16.2876 15.0394 16.4529 15.6368 16.4529C16.2341 16.4529 16.6874 16.2876 16.9968 15.9569C17.3061 15.6156 17.5088 15.1729 17.6048 14.6289C17.7008 14.0743 17.7488 13.3916 17.7488 12.5809ZM22.9085 18.6769C22.5032 18.6769 22.1672 18.5543 21.9005 18.3089C21.6445 18.0529 21.5165 17.7383 21.5165 17.3649C21.5165 16.9916 21.6445 16.6823 21.9005 16.4369C22.1672 16.1809 22.5032 16.0529 22.9085 16.0529C23.3032 16.0529 23.6285 16.1809 23.8845 16.4369C24.1405 16.6823 24.2685 16.9916 24.2685 17.3649C24.2685 17.7383 24.1405 18.0529 23.8845 18.3089C23.6285 18.5543 23.3032 18.6769 22.9085 18.6769ZM25.8168 12.5809C25.8168 10.7356 26.1474 9.29027 26.8088 8.24494C27.4808 7.19961 28.5901 6.67694 30.1368 6.67694C31.6834 6.67694 32.7874 7.19961 33.4488 8.24494C34.1208 9.29027 34.4568 10.7356 34.4568 12.5809C34.4568 14.4369 34.1208 15.8929 33.4488 16.9489C32.7874 18.0049 31.6834 18.5329 30.1368 18.5329C28.5901 18.5329 27.4808 18.0049 26.8088 16.9489C26.1474 15.8929 25.8168 14.4369 25.8168 12.5809ZM32.2488 12.5809C32.2488 11.7916 32.1954 11.1303 32.0888 10.5969C31.9928 10.0529 31.7901 9.61027 31.4808 9.26894C31.1821 8.92761 30.7341 8.75694 30.1368 8.75694C29.5394 8.75694 29.0861 8.92761 28.7768 9.26894C28.4781 9.61027 28.2754 10.0529 28.1688 10.5969C28.0728 11.1303 28.0248 11.7916 28.0248 12.5809C28.0248 13.3916 28.0728 14.0743 28.1688 14.6289C28.2648 15.1729 28.4674 15.6156 28.7768 15.9569C29.0861 16.2876 29.5394 16.4529 30.1368 16.4529C30.7341 16.4529 31.1874 16.2876 31.4968 15.9569C31.8061 15.6156 32.0088 15.1729 32.1048 14.6289C32.2008 14.0743 32.2488 13.3916 32.2488 12.5809ZM36.1605 12.5809C36.1605 10.7356 36.4912 9.29027 37.1525 8.24494C37.8245 7.19961 38.9338 6.67694 40.4805 6.67694C42.0272 6.67694 43.1312 7.19961 43.7925 8.24494C44.4645 9.29027 44.8005 10.7356 44.8005 12.5809C44.8005 14.4369 44.4645 15.8929 43.7925 16.9489C43.1312 18.0049 42.0272 18.5329 40.4805 18.5329C38.9338 18.5329 37.8245 18.0049 37.1525 16.9489C36.4912 15.8929 36.1605 14.4369 36.1605 12.5809ZM42.5925 12.5809C42.5925 11.7916 42.5392 11.1303 42.4325 10.5969C42.3365 10.0529 42.1338 9.61027 41.8245 9.26894C41.5258 8.92761 41.0778 8.75694 40.4805 8.75694C39.8832 8.75694 39.4298 8.92761 39.1205 9.26894C38.8218 9.61027 38.6192 10.0529 38.5125 10.5969C38.4165 11.1303 38.3685 11.7916 38.3685 12.5809C38.3685 13.3916 38.4165 14.0743 38.5125 14.6289C38.6085 15.1729 38.8112 15.6156 39.1205 15.9569C39.4298 16.2876 39.8832 16.4529 40.4805 16.4529C41.0778 16.4529 41.5312 16.2876 41.8405 15.9569C42.1498 15.6156 42.3525 15.1729 42.4485 14.6289C42.5445 14.0743 42.5925 13.3916 42.5925 12.5809Z" fill="#0B3954"/>
</svg>
