<svg width="33" height="33" viewBox="0 0 33 33" fill="none" xmlns="http://www.w3.org/2000/svg">
<g clip-path="url(#clip0_1_2119)">
<g clip-path="url(#clip1_1_2119)">
<path fill-rule="evenodd" clip-rule="evenodd" d="M6.82795 9.22244C6.16521 9.22244 5.62795 9.7597 5.62795 10.4224V23.838H4.02795V10.4224C4.02795 8.87604 5.28155 7.62244 6.82795 7.62244H26.828C28.3744 7.62244 29.628 8.87604 29.628 10.4224V23.9146H18.5609V9.22244H6.82795ZM20.1609 9.22244V13.2973H28.028V10.4224C28.028 9.7597 27.4908 9.22244 26.828 9.22244H20.1609ZM28.028 14.8973H20.1609V22.3146H28.028V14.8973Z" fill="#0B3954"/>
<path d="M24.9042 16.8795C24.9042 17.2935 24.5686 17.6291 24.1546 17.6291C23.7408 17.6291 23.4052 17.2935 23.4052 16.8795C23.4052 16.4656 23.7408 16.13 24.1546 16.13C24.5686 16.13 24.9042 16.4656 24.9042 16.8795Z" fill="#0B3954"/>
</g>
</g>
<defs>
<clipPath id="clip0_1_2119">
<rect width="32" height="32" fill="white" transform="translate(0.828003 0.130005)"/>
</clipPath>
<clipPath id="clip1_1_2119">
<rect width="32" height="32" fill="white" transform="translate(0.828003 0.130005)"/>
</clipPath>
</defs>
</svg>
