<svg width="204" height="239" viewBox="0 0 204 239" fill="none" xmlns="http://www.w3.org/2000/svg">
<rect x="12" y="0.125" width="179.333" height="198" rx="32" fill="#F9F9F9"/>
<g clip-path="url(#clip0_1_1301)">
<g clip-path="url(#clip1_1_1301)">
<g clip-path="url(#clip2_1_1301)">
<path fill-rule="evenodd" clip-rule="evenodd" d="M51.6666 35.5874C48.3529 35.5874 45.6666 38.2737 45.6666 41.5874V108.665H37.6666V41.5874C37.6666 33.8554 43.9346 27.5874 51.6666 27.5874H151.667C159.399 27.5874 165.667 33.8554 165.667 41.5874V109.048H110.332V35.5874H51.6666ZM118.332 35.5874V55.9619H157.667V41.5874C157.667 38.2737 154.981 35.5874 151.667 35.5874H118.332ZM157.667 63.9619H118.332V101.048H157.667V63.9619Z" fill="#0B3954"/>
<path d="M142.048 73.8727C142.048 75.9424 140.37 77.6203 138.3 77.6203C136.231 77.6203 134.553 75.9424 134.553 73.8727C134.553 71.8029 136.231 70.125 138.3 70.125C140.37 70.125 142.048 71.8029 142.048 73.8727Z" fill="#0B3954"/>
</g>
</g>
</g>
<path d="M74.8325 161.205V158.565H77.8525C78.6125 158.565 79.2858 158.452 79.8725 158.225C80.4725 157.985 80.9791 157.652 81.3925 157.225C81.8058 156.798 82.1191 156.298 82.3325 155.725C82.5591 155.138 82.6725 154.492 82.6725 153.785C82.6725 153.052 82.5591 152.398 82.3325 151.825C82.1191 151.238 81.8058 150.738 81.3925 150.325C80.9791 149.912 80.4725 149.598 79.8725 149.385C79.2858 149.172 78.6125 149.065 77.8525 149.065H74.8325V146.425H77.6725C78.9925 146.425 80.1458 146.618 81.1325 147.005C82.1191 147.392 82.9391 147.925 83.5925 148.605C84.2458 149.272 84.7325 150.038 85.0525 150.905C85.3858 151.758 85.5525 152.645 85.5525 153.565V154.005C85.5525 154.885 85.3858 155.752 85.0525 156.605C84.7325 157.458 84.2458 158.232 83.5925 158.925C82.9391 159.618 82.1191 160.172 81.1325 160.585C80.1458 160.998 78.9925 161.205 77.6725 161.205H74.8325ZM72.3925 161.205V146.425H75.2325V161.205H72.3925ZM92.7356 161.505C91.8022 161.505 90.9822 161.345 90.2756 161.025C89.5822 160.705 89.0022 160.278 88.5356 159.745C88.0822 159.198 87.7356 158.592 87.4956 157.925C87.2689 157.258 87.1556 156.578 87.1556 155.885V155.505C87.1556 154.785 87.2689 154.092 87.4956 153.425C87.7356 152.745 88.0822 152.145 88.5356 151.625C89.0022 151.092 89.5756 150.672 90.2556 150.365C90.9356 150.045 91.7222 149.885 92.6156 149.885C93.7889 149.885 94.7689 150.145 95.5556 150.665C96.3556 151.172 96.9556 151.845 97.3556 152.685C97.7556 153.512 97.9556 154.405 97.9556 155.365V156.365H88.3356V154.665H96.2156L95.3556 155.505C95.3556 154.812 95.2556 154.218 95.0556 153.725C94.8556 153.232 94.5489 152.852 94.1356 152.585C93.7356 152.318 93.2289 152.185 92.6156 152.185C92.0022 152.185 91.4822 152.325 91.0556 152.605C90.6289 152.885 90.3022 153.292 90.0756 153.825C89.8622 154.345 89.7556 154.972 89.7556 155.705C89.7556 156.385 89.8622 156.992 90.0756 157.525C90.2889 158.045 90.6156 158.458 91.0556 158.765C91.4956 159.058 92.0556 159.205 92.7356 159.205C93.4156 159.205 93.9689 159.072 94.3956 158.805C94.8222 158.525 95.0956 158.185 95.2156 157.785H97.7756C97.6156 158.532 97.3089 159.185 96.8556 159.745C96.4022 160.305 95.8222 160.738 95.1156 161.045C94.4222 161.352 93.6289 161.505 92.7356 161.505ZM104.218 161.465C102.725 161.465 101.551 161.152 100.698 160.525C99.8579 159.885 99.4179 159.005 99.3779 157.885H101.878C101.918 158.258 102.125 158.598 102.498 158.905C102.871 159.212 103.458 159.365 104.258 159.365C104.925 159.365 105.451 159.245 105.838 159.005C106.238 158.765 106.438 158.438 106.438 158.025C106.438 157.665 106.285 157.378 105.978 157.165C105.685 156.952 105.178 156.812 104.458 156.745L103.498 156.645C102.285 156.512 101.351 156.165 100.698 155.605C100.045 155.045 99.7179 154.298 99.7179 153.365C99.7179 152.618 99.9046 151.992 100.278 151.485C100.651 150.978 101.165 150.598 101.818 150.345C102.485 150.078 103.245 149.945 104.098 149.945C105.431 149.945 106.511 150.238 107.338 150.825C108.165 151.412 108.598 152.272 108.638 153.405H106.138C106.111 153.032 105.925 152.712 105.578 152.445C105.231 152.178 104.731 152.045 104.078 152.045C103.491 152.045 103.038 152.158 102.718 152.385C102.398 152.612 102.238 152.905 102.238 153.265C102.238 153.612 102.365 153.878 102.618 154.065C102.885 154.252 103.311 154.378 103.898 154.445L104.858 154.545C106.138 154.678 107.138 155.032 107.858 155.605C108.591 156.178 108.958 156.952 108.958 157.925C108.958 158.645 108.758 159.272 108.358 159.805C107.971 160.325 107.425 160.732 106.718 161.025C106.011 161.318 105.178 161.465 104.218 161.465ZM118.854 161.125L115.214 156.045H113.594L118.214 150.265H121.114L116.854 155.605L116.914 154.205L121.994 161.125H118.854ZM111.254 161.125V146.525H114.034V161.125H111.254ZM127.284 161.465C125.791 161.465 124.618 161.152 123.764 160.525C122.924 159.885 122.484 159.005 122.444 157.885H124.944C124.984 158.258 125.191 158.598 125.564 158.905C125.938 159.212 126.524 159.365 127.324 159.365C127.991 159.365 128.518 159.245 128.904 159.005C129.304 158.765 129.504 158.438 129.504 158.025C129.504 157.665 129.351 157.378 129.044 157.165C128.751 156.952 128.244 156.812 127.524 156.745L126.564 156.645C125.351 156.512 124.418 156.165 123.764 155.605C123.111 155.045 122.784 154.298 122.784 153.365C122.784 152.618 122.971 151.992 123.344 151.485C123.718 150.978 124.231 150.598 124.884 150.345C125.551 150.078 126.311 149.945 127.164 149.945C128.498 149.945 129.578 150.238 130.404 150.825C131.231 151.412 131.664 152.272 131.704 153.405H129.204C129.178 153.032 128.991 152.712 128.644 152.445C128.298 152.178 127.798 152.045 127.144 152.045C126.558 152.045 126.104 152.158 125.784 152.385C125.464 152.612 125.304 152.905 125.304 153.265C125.304 153.612 125.431 153.878 125.684 154.065C125.951 154.252 126.378 154.378 126.964 154.445L127.924 154.545C129.204 154.678 130.204 155.032 130.924 155.605C131.658 156.178 132.024 156.952 132.024 157.925C132.024 158.645 131.824 159.272 131.424 159.805C131.038 160.325 130.491 160.732 129.784 161.025C129.078 161.318 128.244 161.465 127.284 161.465Z" fill="#0B3954"/>
<defs>
<clipPath id="clip0_1_1301">
<rect width="161.427" height="80" fill="white" transform="translate(20.9531 30.125)"/>
</clipPath>
<clipPath id="clip1_1_1301">
<rect width="80" height="80" fill="white" transform="translate(61.6666 30.125)"/>
</clipPath>
<clipPath id="clip2_1_1301">
<rect width="80" height="80" fill="white" transform="translate(61.6666 30.125)"/>
</clipPath>
</defs>
</svg>
