<svg width="37" height="28" viewBox="0 0 37 28" fill="none" xmlns="http://www.w3.org/2000/svg">
<g clip-path="url(#clip0_1_2031)">
<g clip-path="url(#clip1_1_2031)">
<g clip-path="url(#clip2_1_2031)">
<path fill-rule="evenodd" clip-rule="evenodd" d="M15 14.3155L13.2247 12.5127C12.89 12.1694 12.4899 11.8965 12.0481 11.7102C11.6063 11.5239 11.1317 11.428 10.6522 11.428C10.1727 11.428 9.69811 11.5239 9.2563 11.7102C8.8145 11.8965 8.41446 12.1694 8.07975 12.5127C6.63852 13.9759 6.63852 16.3611 8.07975 17.8246L15 24.8518L21.9202 17.8246C23.3615 16.3611 23.3615 13.9759 21.9202 12.5125C21.5855 12.1692 21.1855 11.8963 20.7437 11.71C20.3019 11.5237 19.8273 11.4277 19.3478 11.4277C18.8683 11.4277 18.3937 11.5237 17.9519 11.71C17.5101 11.8963 17.11 12.1692 16.7753 12.5125L15 14.3155ZM15 27.7006L6.65556 19.2271C4.44815 16.9856 4.44815 13.3515 6.65556 11.11C7.65894 10.0844 9.01829 9.48379 10.4522 9.43263C11.8861 9.38148 13.2848 9.88365 14.3588 10.8352C14.4575 10.9226 14.5546 11.0145 14.6489 11.11L15 11.4666L15.3511 11.11C15.4446 11.0151 15.5414 10.9235 15.6412 10.8352C16.7152 9.88365 18.1139 9.38148 19.5478 9.43263C20.9817 9.48379 22.3411 10.0844 23.3444 11.11C25.5519 13.3515 25.5519 16.9856 23.3444 19.2271L15 27.7006Z" fill="#0B3954"/>
</g>
</g>
</g>
<rect x="18" y="0.429932" width="18.08" height="17" rx="8.5" fill="#333333"/>
<path d="M24.2584 8.37093C24.2584 7.1096 24.4637 6.12693 24.8744 5.42293C25.2851 4.7116 26.0037 4.35593 27.0304 4.35593C28.0497 4.35593 28.7647 4.7116 29.1754 5.42293C29.5861 6.12693 29.7914 7.1096 29.7914 8.37093C29.7914 9.65426 29.5861 10.6516 29.1754 11.3629C28.7647 12.0743 28.0497 12.4299 27.0304 12.4299C26.0037 12.4299 25.2851 12.0743 24.8744 11.3629C24.4637 10.6516 24.2584 9.65426 24.2584 8.37093ZM28.8014 8.37093C28.8014 7.73293 28.7574 7.19393 28.6694 6.75393C28.5887 6.3066 28.4164 5.94726 28.1524 5.67593C27.8957 5.4046 27.5217 5.26893 27.0304 5.26893C26.5317 5.26893 26.1504 5.4046 25.8864 5.67593C25.6297 5.94726 25.4574 6.3066 25.3694 6.75393C25.2887 7.19393 25.2484 7.73293 25.2484 8.37093C25.2484 9.03093 25.2887 9.5846 25.3694 10.0319C25.4574 10.4793 25.6297 10.8386 25.8864 11.1099C26.1504 11.3813 26.5317 11.5169 27.0304 11.5169C27.5217 11.5169 27.8957 11.3813 28.1524 11.1099C28.4164 10.8386 28.5887 10.4793 28.6694 10.0319C28.7574 9.5846 28.8014 9.03093 28.8014 8.37093Z" fill="white"/>
<defs>
<clipPath id="clip0_1_2031">
<rect width="20" height="18.27" fill="white" transform="translate(5 9.42993)"/>
</clipPath>
<clipPath id="clip1_1_2031">
<rect width="20" height="18.27" fill="white" transform="translate(5 9.42993)"/>
</clipPath>
<clipPath id="clip2_1_2031">
<rect width="20" height="18.2716" fill="white" transform="translate(5 9.42908)"/>
</clipPath>
</defs>
</svg>
