<svg width="33" height="33" viewBox="0 0 33 33" fill="none" xmlns="http://www.w3.org/2000/svg">
<path fill-rule="evenodd" clip-rule="evenodd" d="M10.3513 8.73964C10.3513 5.75196 12.7733 3.32996 15.761 3.32996C18.7487 3.32996 21.1707 5.75196 21.1707 8.73964V27.1638H19.5707V8.73964C19.5707 6.63562 17.865 4.92996 15.761 4.92996C13.657 4.92996 11.9513 6.63562 11.9513 8.73964V9.59818H10.3513V8.73964Z" fill="#0B3954"/>
<path fill-rule="evenodd" clip-rule="evenodd" d="M15.7612 27.33C15.7612 26.8882 16.1194 26.53 16.5612 26.53H24.1802C24.622 26.53 24.9802 26.8882 24.9802 27.33C24.9802 27.7718 24.622 28.13 24.1802 28.13H16.5612C16.1194 28.13 15.7612 27.7718 15.7612 27.33Z" fill="#0B3954"/>
<path fill-rule="evenodd" clip-rule="evenodd" d="M7.10034 13.1452C7.10034 10.9078 8.91406 9.09412 11.1514 9.09412C13.3887 9.09412 15.2024 10.9078 15.2024 13.1452V17.1962H7.10034V13.1452ZM11.1514 10.6941C9.79772 10.6941 8.70034 11.7915 8.70034 13.1452V15.5962H13.6024V13.1452C13.6024 11.7915 12.5051 10.6941 11.1514 10.6941Z" fill="#0B3954"/>
</svg>
