<svg width="204" height="239" viewBox="0 0 204 239" fill="none" xmlns="http://www.w3.org/2000/svg">
<rect x="12.6666" y="0.125" width="179.333" height="198" rx="32" fill="#F9F9F9"/>
<g clip-path="url(#clip0_1_1330)">
<g clip-path="url(#clip1_1_1330)">
<g clip-path="url(#clip2_1_1330)">
<path fill-rule="evenodd" clip-rule="evenodd" d="M71.8904 33.1734C71.8904 18.235 84.0004 6.125 98.9389 6.125C113.877 6.125 125.987 18.235 125.987 33.1734V125.294H117.987V33.1734C117.987 22.6533 109.459 14.125 98.9389 14.125C88.4187 14.125 79.8904 22.6533 79.8904 33.1734V37.4661H71.8904V33.1734Z" fill="#0B3954"/>
<path fill-rule="evenodd" clip-rule="evenodd" d="M55.6355 55.201C55.6355 44.0144 64.7041 34.9458 75.8908 34.9458C87.0774 34.9458 96.146 44.0144 96.146 55.201V75.4563H55.6355V55.201ZM75.8908 42.9458C69.1224 42.9458 63.6355 48.4327 63.6355 55.201V67.4563H88.146V55.201C88.146 48.4327 82.6592 42.9458 75.8908 42.9458Z" fill="#0B3954"/>
</g>
</g>
</g>
<path d="M61.1743 161.125V146.525H64.0143V161.125H61.1743ZM63.6143 161.125V158.625H69.9143V161.125H63.6143ZM72.529 161.125V150.265H75.309V161.125H72.529ZM71.009 152.345V150.265H75.309V152.345H71.009ZM73.549 148.965C73.0023 148.965 72.5957 148.825 72.329 148.545C72.0757 148.252 71.949 147.892 71.949 147.465C71.949 147.012 72.0757 146.645 72.329 146.365C72.5957 146.085 73.0023 145.945 73.549 145.945C74.0957 145.945 74.4957 146.085 74.749 146.365C75.0023 146.645 75.129 147.012 75.129 147.465C75.129 147.892 75.0023 148.252 74.749 148.545C74.4957 148.825 74.0957 148.965 73.549 148.965ZM82.7529 165.405C82.2329 165.405 81.6996 165.385 81.1529 165.345C80.6196 165.305 80.1196 165.252 79.6529 165.185V162.865C80.1329 162.918 80.6462 162.965 81.1929 163.005C81.7396 163.058 82.2529 163.085 82.7329 163.085C83.6262 163.085 84.3462 162.978 84.8929 162.765C85.4529 162.552 85.8596 162.212 86.1129 161.745C86.3796 161.292 86.5129 160.712 86.5129 160.005V157.865L87.1129 156.505C87.0729 157.505 86.8662 158.358 86.4929 159.065C86.1196 159.758 85.6129 160.292 84.9729 160.665C84.3329 161.025 83.5929 161.205 82.7529 161.205C82.0062 161.205 81.3262 161.065 80.7129 160.785C80.1129 160.505 79.5929 160.118 79.1529 159.625C78.7262 159.132 78.3929 158.552 78.1529 157.885C77.9129 157.218 77.7929 156.505 77.7929 155.745V155.325C77.7929 154.565 77.9129 153.858 78.1529 153.205C78.4062 152.538 78.7596 151.958 79.2129 151.465C79.6662 150.972 80.2062 150.592 80.8329 150.325C81.4596 150.058 82.1529 149.925 82.9129 149.925C83.8062 149.925 84.5796 150.118 85.2329 150.505C85.8996 150.892 86.4196 151.452 86.7929 152.185C87.1662 152.918 87.3729 153.818 87.4129 154.885L86.9329 154.965V150.265H89.1329V159.845C89.1329 161.165 88.9062 162.232 88.4529 163.045C87.9996 163.858 87.2996 164.452 86.3529 164.825C85.4196 165.212 84.2196 165.405 82.7529 165.405ZM83.5529 158.825C84.0862 158.825 84.5729 158.705 85.0129 158.465C85.4529 158.225 85.8062 157.878 86.0729 157.425C86.3396 156.972 86.4729 156.425 86.4729 155.785V155.085C86.4729 154.472 86.3329 153.952 86.0529 153.525C85.7862 153.098 85.4329 152.778 84.9929 152.565C84.5529 152.338 84.0729 152.225 83.5529 152.225C82.9662 152.225 82.4462 152.365 81.9929 152.645C81.5529 152.912 81.2062 153.292 80.9529 153.785C80.6996 154.278 80.5729 154.865 80.5729 155.545C80.5729 156.212 80.6996 156.792 80.9529 157.285C81.2062 157.778 81.5529 158.158 81.9929 158.425C82.4462 158.692 82.9662 158.825 83.5529 158.825ZM92.1653 161.125V146.525H94.9453V155.045H94.4653C94.4653 153.952 94.6053 153.025 94.8853 152.265C95.1653 151.505 95.5786 150.925 96.1253 150.525C96.6853 150.125 97.3919 149.925 98.2453 149.925H98.3653C99.6053 149.925 100.545 150.352 101.185 151.205C101.825 152.058 102.145 153.298 102.145 154.925V161.125H99.3653V154.665C99.3653 153.972 99.1653 153.425 98.7653 153.025C98.3786 152.625 97.8653 152.425 97.2253 152.425C96.5453 152.425 95.9919 152.652 95.5653 153.105C95.1519 153.545 94.9453 154.125 94.9453 154.845V161.125H92.1653ZM109.854 161.265C108.854 161.265 108.027 161.138 107.374 160.885C106.734 160.618 106.254 160.178 105.934 159.565C105.614 158.938 105.454 158.098 105.454 157.045L105.474 147.205H108.074L108.054 157.225C108.054 157.758 108.194 158.172 108.474 158.465C108.767 158.745 109.181 158.885 109.714 158.885H111.414V161.265H109.854ZM103.734 152.305V150.265H111.414V152.305H103.734ZM114.267 161.125V150.265H117.047V161.125H114.267ZM112.747 152.345V150.265H117.047V152.345H112.747ZM115.287 148.965C114.741 148.965 114.334 148.825 114.067 148.545C113.814 148.252 113.687 147.892 113.687 147.465C113.687 147.012 113.814 146.645 114.067 146.365C114.334 146.085 114.741 145.945 115.287 145.945C115.834 145.945 116.234 146.085 116.487 146.365C116.741 146.645 116.867 147.012 116.867 147.465C116.867 147.892 116.741 148.252 116.487 148.545C116.234 148.825 115.834 148.965 115.287 148.965ZM120.251 161.125V150.265H122.451V154.925H122.251C122.251 153.818 122.398 152.898 122.691 152.165C122.985 151.418 123.418 150.858 123.991 150.485C124.578 150.112 125.305 149.925 126.171 149.925H126.291C127.585 149.925 128.565 150.345 129.231 151.185C129.898 152.012 130.231 153.252 130.231 154.905V161.125H127.451V154.665C127.451 153.998 127.258 153.458 126.871 153.045C126.498 152.632 125.978 152.425 125.311 152.425C124.631 152.425 124.078 152.638 123.651 153.065C123.238 153.478 123.031 154.038 123.031 154.745V161.125H120.251ZM137.46 165.405C136.94 165.405 136.407 165.385 135.86 165.345C135.327 165.305 134.827 165.252 134.36 165.185V162.865C134.84 162.918 135.353 162.965 135.9 163.005C136.447 163.058 136.96 163.085 137.44 163.085C138.333 163.085 139.053 162.978 139.6 162.765C140.16 162.552 140.567 162.212 140.82 161.745C141.087 161.292 141.22 160.712 141.22 160.005V157.865L141.82 156.505C141.78 157.505 141.573 158.358 141.2 159.065C140.827 159.758 140.32 160.292 139.68 160.665C139.04 161.025 138.3 161.205 137.46 161.205C136.713 161.205 136.033 161.065 135.42 160.785C134.82 160.505 134.3 160.118 133.86 159.625C133.433 159.132 133.1 158.552 132.86 157.885C132.62 157.218 132.5 156.505 132.5 155.745V155.325C132.5 154.565 132.62 153.858 132.86 153.205C133.113 152.538 133.467 151.958 133.92 151.465C134.373 150.972 134.913 150.592 135.54 150.325C136.167 150.058 136.86 149.925 137.62 149.925C138.513 149.925 139.287 150.118 139.94 150.505C140.607 150.892 141.127 151.452 141.5 152.185C141.873 152.918 142.08 153.818 142.12 154.885L141.64 154.965V150.265H143.84V159.845C143.84 161.165 143.613 162.232 143.16 163.045C142.707 163.858 142.007 164.452 141.06 164.825C140.127 165.212 138.927 165.405 137.46 165.405ZM138.26 158.825C138.793 158.825 139.28 158.705 139.72 158.465C140.16 158.225 140.513 157.878 140.78 157.425C141.047 156.972 141.18 156.425 141.18 155.785V155.085C141.18 154.472 141.04 153.952 140.76 153.525C140.493 153.098 140.14 152.778 139.7 152.565C139.26 152.338 138.78 152.225 138.26 152.225C137.673 152.225 137.153 152.365 136.7 152.645C136.26 152.912 135.913 153.292 135.66 153.785C135.407 154.278 135.28 154.865 135.28 155.545C135.28 156.212 135.407 156.792 135.66 157.285C135.913 157.778 136.26 158.158 136.7 158.425C137.153 158.692 137.673 158.825 138.26 158.825Z" fill="#0B3954"/>
<defs>
<clipPath id="clip0_1_1330">
<rect width="161.427" height="80" fill="white" transform="translate(21.6198 30.125)"/>
</clipPath>
<clipPath id="clip1_1_1330">
<rect width="80" height="80" fill="white" transform="translate(62.3333 30.125)"/>
</clipPath>
<clipPath id="clip2_1_1330">
<rect width="80" height="80" fill="white" transform="translate(62.3333 30.125)"/>
</clipPath>
</defs>
</svg>
