<svg width="204" height="239" viewBox="0 0 204 239" fill="none" xmlns="http://www.w3.org/2000/svg">
<rect x="12.6667" y="0.125" width="179.333" height="198" rx="32" fill="#F9F9F9"/>
<g clip-path="url(#clip0_1_1286)">
<g clip-path="url(#clip1_1_1286)">
<g clip-path="url(#clip2_1_1286)">
<path fill-rule="evenodd" clip-rule="evenodd" d="M52.3335 37.394C49.0197 37.394 46.3335 40.0803 46.3335 43.394L46.3334 109.593H38.3334L38.3335 43.394C38.3335 35.662 44.6015 29.394 52.3335 29.394H152.333C160.065 29.394 166.333 35.6621 166.333 43.3941V109.593H158.333V43.394C158.333 40.0803 155.647 37.394 152.333 37.394H52.3335Z" fill="#0B3954"/>
<path fill-rule="evenodd" clip-rule="evenodd" d="M51.6831 37.394C48.7286 37.394 46.3334 39.7891 46.3334 42.7436C46.3334 45.6982 48.7285 48.0934 51.6831 48.0934H152.983C155.938 48.0934 158.333 45.6983 158.333 42.7438C158.333 39.7892 155.938 37.394 152.983 37.394H51.6831ZM38.3334 42.7435C38.3335 35.3708 44.3103 29.394 51.6831 29.394H152.983C160.356 29.394 166.333 35.371 166.333 42.7438C166.333 50.1166 160.356 56.0934 152.983 56.0934H51.6831C44.3102 56.0934 38.3333 50.1164 38.3334 42.7435Z" fill="#0B3954"/>
<path fill-rule="evenodd" clip-rule="evenodd" d="M57.8802 109.593V54.5928H65.3802V109.593H57.8802Z" fill="#0B3954"/>
<path fill-rule="evenodd" clip-rule="evenodd" d="M137.88 109.593V54.5928H145.88V109.593H137.88Z" fill="#0B3954"/>
</g>
</g>
</g>
<path d="M73.6638 161.125V148.625H76.5038V161.125H73.6638ZM69.4438 149.025V146.525H80.7238V149.025H69.4438ZM88.6282 161.125V157.905H88.1682V154.325C88.1682 153.698 88.0149 153.232 87.7082 152.925C87.4015 152.618 86.9282 152.465 86.2882 152.465C85.9549 152.465 85.5549 152.472 85.0882 152.485C84.6215 152.498 84.1482 152.518 83.6682 152.545C83.2015 152.558 82.7815 152.578 82.4082 152.605V150.245C82.7149 150.218 83.0615 150.192 83.4482 150.165C83.8349 150.138 84.2282 150.125 84.6282 150.125C85.0415 150.112 85.4282 150.105 85.7882 150.105C86.9082 150.105 87.8349 150.252 88.5682 150.545C89.3149 150.838 89.8749 151.298 90.2482 151.925C90.6349 152.552 90.8282 153.372 90.8282 154.385V161.125H88.6282ZM85.1282 161.405C84.3415 161.405 83.6482 161.265 83.0482 160.985C82.4615 160.705 82.0015 160.305 81.6682 159.785C81.3482 159.265 81.1882 158.638 81.1882 157.905C81.1882 157.105 81.3815 156.452 81.7682 155.945C82.1682 155.438 82.7215 155.058 83.4282 154.805C84.1482 154.552 84.9882 154.425 85.9482 154.425H88.4682V156.085H85.9082C85.2682 156.085 84.7749 156.245 84.4282 156.565C84.0949 156.872 83.9282 157.272 83.9282 157.765C83.9282 158.258 84.0949 158.658 84.4282 158.965C84.7749 159.272 85.2682 159.425 85.9082 159.425C86.2949 159.425 86.6482 159.358 86.9682 159.225C87.3015 159.078 87.5749 158.838 87.7882 158.505C88.0149 158.158 88.1415 157.692 88.1682 157.105L88.8482 157.885C88.7815 158.645 88.5949 159.285 88.2882 159.805C87.9949 160.325 87.5815 160.725 87.0482 161.005C86.5282 161.272 85.8882 161.405 85.1282 161.405ZM100.186 161.485C99.2927 161.485 98.506 161.298 97.826 160.925C97.146 160.538 96.6127 159.978 96.226 159.245C95.8393 158.512 95.626 157.625 95.586 156.585H96.006V161.125H93.806V146.525H96.586V153.825L95.846 154.965C95.8993 153.845 96.1193 152.912 96.506 152.165C96.906 151.418 97.4393 150.858 98.106 150.485C98.7727 150.112 99.526 149.925 100.366 149.925C101.113 149.925 101.793 150.065 102.406 150.345C103.019 150.625 103.546 151.018 103.986 151.525C104.426 152.018 104.759 152.598 104.986 153.265C105.226 153.932 105.346 154.658 105.346 155.445V155.865C105.346 156.652 105.226 157.385 104.986 158.065C104.746 158.745 104.399 159.345 103.946 159.865C103.493 160.372 102.946 160.772 102.306 161.065C101.679 161.345 100.973 161.485 100.186 161.485ZM99.566 159.145C100.166 159.145 100.686 158.998 101.126 158.705C101.579 158.398 101.933 157.985 102.186 157.465C102.439 156.945 102.566 156.345 102.566 155.665C102.566 154.972 102.439 154.372 102.186 153.865C101.933 153.358 101.579 152.965 101.126 152.685C100.686 152.405 100.166 152.265 99.566 152.265C99.0193 152.265 98.5127 152.385 98.046 152.625C97.5927 152.865 97.2193 153.218 96.926 153.685C96.646 154.152 96.506 154.712 96.506 155.365V156.165C96.506 156.792 96.6527 157.325 96.946 157.765C97.2393 158.205 97.6193 158.545 98.086 158.785C98.5527 159.025 99.046 159.145 99.566 159.145ZM107.93 161.125V146.525H110.71V161.125H107.93ZM106.57 148.605V146.525H110.71V148.605H106.57ZM118.744 161.505C117.811 161.505 116.991 161.345 116.284 161.025C115.591 160.705 115.011 160.278 114.544 159.745C114.091 159.198 113.744 158.592 113.504 157.925C113.277 157.258 113.164 156.578 113.164 155.885V155.505C113.164 154.785 113.277 154.092 113.504 153.425C113.744 152.745 114.091 152.145 114.544 151.625C115.011 151.092 115.584 150.672 116.264 150.365C116.944 150.045 117.731 149.885 118.624 149.885C119.797 149.885 120.777 150.145 121.564 150.665C122.364 151.172 122.964 151.845 123.364 152.685C123.764 153.512 123.964 154.405 123.964 155.365V156.365H114.344V154.665H122.224L121.364 155.505C121.364 154.812 121.264 154.218 121.064 153.725C120.864 153.232 120.557 152.852 120.144 152.585C119.744 152.318 119.237 152.185 118.624 152.185C118.011 152.185 117.491 152.325 117.064 152.605C116.637 152.885 116.311 153.292 116.084 153.825C115.871 154.345 115.764 154.972 115.764 155.705C115.764 156.385 115.871 156.992 116.084 157.525C116.297 158.045 116.624 158.458 117.064 158.765C117.504 159.058 118.064 159.205 118.744 159.205C119.424 159.205 119.977 159.072 120.404 158.805C120.831 158.525 121.104 158.185 121.224 157.785H123.784C123.624 158.532 123.317 159.185 122.864 159.745C122.411 160.305 121.831 160.738 121.124 161.045C120.431 161.352 119.637 161.505 118.744 161.505ZM130.226 161.465C128.733 161.465 127.56 161.152 126.706 160.525C125.866 159.885 125.426 159.005 125.386 157.885H127.886C127.926 158.258 128.133 158.598 128.506 158.905C128.88 159.212 129.466 159.365 130.266 159.365C130.933 159.365 131.46 159.245 131.846 159.005C132.246 158.765 132.446 158.438 132.446 158.025C132.446 157.665 132.293 157.378 131.986 157.165C131.693 156.952 131.186 156.812 130.466 156.745L129.506 156.645C128.293 156.512 127.36 156.165 126.706 155.605C126.053 155.045 125.726 154.298 125.726 153.365C125.726 152.618 125.913 151.992 126.286 151.485C126.66 150.978 127.173 150.598 127.826 150.345C128.493 150.078 129.253 149.945 130.106 149.945C131.44 149.945 132.52 150.238 133.346 150.825C134.173 151.412 134.606 152.272 134.646 153.405H132.146C132.12 153.032 131.933 152.712 131.586 152.445C131.24 152.178 130.74 152.045 130.086 152.045C129.5 152.045 129.046 152.158 128.726 152.385C128.406 152.612 128.246 152.905 128.246 153.265C128.246 153.612 128.373 153.878 128.626 154.065C128.893 154.252 129.32 154.378 129.906 154.445L130.866 154.545C132.146 154.678 133.146 155.032 133.866 155.605C134.6 156.178 134.966 156.952 134.966 157.925C134.966 158.645 134.766 159.272 134.366 159.805C133.98 160.325 133.433 160.732 132.726 161.025C132.02 161.318 131.186 161.465 130.226 161.465Z" fill="#0B3954"/>
<defs>
<clipPath id="clip0_1_1286">
<rect width="161.427" height="80" fill="white" transform="translate(21.6199 30.125)"/>
</clipPath>
<clipPath id="clip1_1_1286">
<rect width="80" height="80" fill="white" transform="translate(62.3334 30.125)"/>
</clipPath>
<clipPath id="clip2_1_1286">
<rect width="80" height="80" fill="white" transform="translate(62.3334 30.125)"/>
</clipPath>
</defs>
</svg>
