<svg width="19" height="18" viewBox="0 0 19 18" fill="none" xmlns="http://www.w3.org/2000/svg">
<rect x="0.359985" y="0.0749512" width="18.08" height="17" rx="8.5" fill="#333333"/>
<path d="M6.6184 8.01595C6.6184 6.75462 6.82373 5.77195 7.2344 5.06795C7.64507 4.35662 8.36373 4.00095 9.3904 4.00095C10.4097 4.00095 11.1247 4.35662 11.5354 5.06795C11.9461 5.77195 12.1514 6.75462 12.1514 8.01595C12.1514 9.29928 11.9461 10.2966 11.5354 11.008C11.1247 11.7193 10.4097 12.075 9.3904 12.075C8.36373 12.075 7.64507 11.7193 7.2344 11.008C6.82373 10.2966 6.6184 9.29928 6.6184 8.01595ZM11.1614 8.01595C11.1614 7.37795 11.1174 6.83895 11.0294 6.39895C10.9487 5.95162 10.7764 5.59228 10.5124 5.32095C10.2557 5.04962 9.88173 4.91395 9.3904 4.91395C8.89173 4.91395 8.5104 5.04962 8.2464 5.32095C7.98973 5.59228 7.8174 5.95162 7.7294 6.39895C7.64873 6.83895 7.6084 7.37795 7.6084 8.01595C7.6084 8.67595 7.64873 9.22962 7.7294 9.67695C7.8174 10.1243 7.98973 10.4836 8.2464 10.755C8.5104 11.0263 8.89173 11.162 9.3904 11.162C9.88173 11.162 10.2557 11.0263 10.5124 10.755C10.7764 10.4836 10.9487 10.1243 11.0294 9.67695C11.1174 9.22962 11.1614 8.67595 11.1614 8.01595Z" fill="white"/>
</svg>
